{
	"asset":{
		"version":"2.0",
		"generator":""
	},
	"scenes":[{
		"nodes":[0]
	}],
	"nodes":[{
		"name":"bok3.ai",
		"translation":[-0.006788649130612612,
		0.057214561849832538,
		0.010990838520228863],
		"rotation":[0.0,
		0.0,
		0.0,
		-1.0],
		"scale":[1.0,
		1.0,
		1.0],
		"children":[1]
	},
	{
		"name":"Null",
		"translation":[-0.1487390398979187,
		-0.10523910820484162,
		0.0],
		"rotation":[0.0,
		0.0,
		0.0,
		-1.0],
		"scale":[1.0,
		1.0,
		1.0],
		"children":[2]
	},
	{
		"name":"Layer 1",
		"translation":[0.18353807926177979,
		0.10563046485185623,
		0.0],
		"rotation":[0.0,
		0.0,
		0.0,
		-1.0],
		"scale":[1.0,
		1.0,
		1.0],
		"children":[3,
		4,
		5,
		6,
		7,
		8,
		9,
		10,
		11,
		12,
		13,
		14,
		15,
		16,
		17,
		18,
		19]
	},
	{
		"name":"Fill",
		"mesh":0,
		"translation":[-0.18353807926177979,
		-0.10563046485185623,
		0.0],
		"rotation":[0.0,
		0.0,
		0.0,
		-1.0],
		"scale":[1.0,
		1.0,
		1.0]
	},
	{
		"name":"Fill",
		"mesh":1,
		"translation":[-0.18353807926177979,
		-0.10563046485185623,
		0.0],
		"rotation":[0.0,
		0.0,
		0.0,
		-1.0],
		"scale":[1.0,
		1.0,
		1.0]
	},
	{
		"name":"Fill",
		"mesh":2,
		"translation":[-0.18353807926177979,
		-0.10563046485185623,
		0.0],
		"rotation":[0.0,
		0.0,
		0.0,
		-1.0],
		"scale":[1.0,
		1.0,
		1.0]
	},
	{
		"name":"Fill",
		"mesh":3,
		"translation":[-0.18353807926177979,
		-0.10563046485185623,
		0.0],
		"rotation":[0.0,
		0.0,
		0.0,
		-1.0],
		"scale":[1.0,
		1.0,
		1.0]
	},
	{
		"name":"Fill",
		"mesh":4,
		"translation":[-0.18353807926177979,
		-0.10563046485185623,
		0.0],
		"rotation":[0.0,
		0.0,
		0.0,
		-1.0],
		"scale":[1.0,
		1.0,
		1.0]
	},
	{
		"name":"Fill",
		"mesh":5,
		"translation":[-0.18353807926177979,
		-0.10563046485185623,
		0.0],
		"rotation":[0.0,
		0.0,
		0.0,
		-1.0],
		"scale":[1.0,
		1.0,
		1.0]
	},
	{
		"name":"Fill",
		"mesh":6,
		"translation":[-0.18353807926177979,
		-0.10563046485185623,
		0.0],
		"rotation":[0.0,
		0.0,
		0.0,
		-1.0],
		"scale":[1.0,
		1.0,
		1.0]
	},
	{
		"name":"Fill",
		"mesh":7,
		"translation":[-0.18353807926177979,
		-0.10563046485185623,
		0.0],
		"rotation":[0.0,
		0.0,
		0.0,
		-1.0],
		"scale":[1.0,
		1.0,
		1.0]
	},
	{
		"name":"Fill",
		"mesh":8,
		"translation":[-0.18353807926177979,
		-0.10563046485185623,
		0.0],
		"rotation":[0.0,
		0.0,
		0.0,
		-1.0],
		"scale":[1.0,
		1.0,
		1.0]
	},
	{
		"name":"Fill",
		"mesh":9,
		"translation":[-0.18353807926177979,
		-0.10563046485185623,
		0.0],
		"rotation":[0.0,
		0.0,
		0.0,
		-1.0],
		"scale":[1.0,
		1.0,
		1.0]
	},
	{
		"name":"Fill",
		"mesh":10,
		"translation":[-0.18353807926177979,
		-0.10563046485185623,
		0.0],
		"rotation":[0.0,
		0.0,
		0.0,
		-1.0],
		"scale":[1.0,
		1.0,
		1.0]
	},
	{
		"name":"Fill",
		"mesh":11,
		"translation":[-0.18353807926177979,
		-0.10563046485185623,
		0.0],
		"rotation":[0.0,
		0.0,
		0.0,
		-1.0],
		"scale":[1.0,
		1.0,
		1.0]
	},
	{
		"name":"Fill",
		"mesh":12,
		"translation":[-0.18353807926177979,
		-0.10563046485185623,
		0.0],
		"rotation":[0.0,
		0.0,
		0.0,
		-1.0],
		"scale":[1.0,
		1.0,
		1.0]
	},
	{
		"name":"Fill",
		"mesh":13,
		"translation":[-0.18353807926177979,
		-0.10563046485185623,
		0.0],
		"rotation":[0.0,
		0.0,
		0.0,
		-1.0],
		"scale":[1.0,
		1.0,
		1.0]
	},
	{
		"name":"Fill",
		"mesh":14,
		"translation":[-0.18353807926177979,
		-0.10563046485185623,
		0.0],
		"rotation":[0.0,
		0.0,
		0.0,
		-1.0],
		"scale":[1.0,
		1.0,
		1.0]
	},
	{
		"name":"Fill",
		"mesh":15,
		"translation":[-0.18353807926177979,
		-0.10563046485185623,
		0.0],
		"rotation":[0.0,
		0.0,
		0.0,
		-1.0],
		"scale":[1.0,
		1.0,
		1.0]
	},
	{
		"name":"Fill",
		"mesh":16,
		"translation":[-0.18353807926177979,
		-0.10563046485185623,
		0.0],
		"rotation":[0.0,
		0.0,
		0.0,
		-1.0],
		"scale":[1.0,
		1.0,
		1.0]
	}],
	"meshes":[{
		"name":"Fill",
		"primitives":[{
			"attributes":{
				"POSITION":1,
				"NORMAL":2,
				"TEXCOORD_0":3
			},
			"indices":0,
			"material":0
		}]
	},
	{
		"name":"Fill",
		"primitives":[{
			"attributes":{
				"POSITION":5,
				"NORMAL":6,
				"TEXCOORD_0":7
			},
			"indices":4,
			"material":0
		}]
	},
	{
		"name":"Fill",
		"primitives":[{
			"attributes":{
				"POSITION":9,
				"NORMAL":10,
				"TEXCOORD_0":11
			},
			"indices":8,
			"material":0
		}]
	},
	{
		"name":"Fill",
		"primitives":[{
			"attributes":{
				"POSITION":13,
				"NORMAL":14,
				"TEXCOORD_0":15
			},
			"indices":12,
			"material":0
		}]
	},
	{
		"name":"Fill",
		"primitives":[{
			"attributes":{
				"POSITION":17,
				"NORMAL":18,
				"TEXCOORD_0":19
			},
			"indices":16,
			"material":0
		}]
	},
	{
		"name":"Fill",
		"primitives":[{
			"attributes":{
				"POSITION":21,
				"NORMAL":22,
				"TEXCOORD_0":23
			},
			"indices":20,
			"material":0
		}]
	},
	{
		"name":"Fill",
		"primitives":[{
			"attributes":{
				"POSITION":25,
				"NORMAL":26,
				"TEXCOORD_0":27
			},
			"indices":24,
			"material":0
		}]
	},
	{
		"name":"Fill",
		"primitives":[{
			"attributes":{
				"POSITION":29,
				"NORMAL":30,
				"TEXCOORD_0":31
			},
			"indices":28,
			"material":0
		}]
	},
	{
		"name":"Fill",
		"primitives":[{
			"attributes":{
				"POSITION":33,
				"NORMAL":34,
				"TEXCOORD_0":35
			},
			"indices":32,
			"material":0
		}]
	},
	{
		"name":"Fill",
		"primitives":[{
			"attributes":{
				"POSITION":37,
				"NORMAL":38,
				"TEXCOORD_0":39
			},
			"indices":36,
			"material":0
		}]
	},
	{
		"name":"Fill",
		"primitives":[{
			"attributes":{
				"POSITION":41,
				"NORMAL":42,
				"TEXCOORD_0":43
			},
			"indices":40,
			"material":0
		}]
	},
	{
		"name":"Fill",
		"primitives":[{
			"attributes":{
				"POSITION":45,
				"NORMAL":46,
				"TEXCOORD_0":47
			},
			"indices":44,
			"material":0
		}]
	},
	{
		"name":"Fill",
		"primitives":[{
			"attributes":{
				"POSITION":49,
				"NORMAL":50,
				"TEXCOORD_0":51
			},
			"indices":48,
			"material":0
		}]
	},
	{
		"name":"Fill",
		"primitives":[{
			"attributes":{
				"POSITION":53,
				"NORMAL":54,
				"TEXCOORD_0":55
			},
			"indices":52,
			"material":0
		}]
	},
	{
		"name":"Fill",
		"primitives":[{
			"attributes":{
				"POSITION":57,
				"NORMAL":58,
				"TEXCOORD_0":59
			},
			"indices":56,
			"material":0
		}]
	},
	{
		"name":"Fill",
		"primitives":[{
			"attributes":{
				"POSITION":61,
				"NORMAL":62,
				"TEXCOORD_0":63
			},
			"indices":60,
			"material":0
		}]
	},
	{
		"name":"Fill",
		"primitives":[{
			"attributes":{
				"POSITION":65,
				"NORMAL":66,
				"TEXCOORD_0":67
			},
			"indices":64,
			"material":0
		}]
	}],
	"accessors":[{
		"bufferView":0,
		"type":"SCALAR",
		"componentType":5123,
		"count":108,
		"byteOffset":0,
		"min":[0],
		"max":[107]
	},
	{
		"bufferView":1,
		"type":"VEC3",
		"componentType":5126,
		"count":108,
		"byteOffset":0,
		"min":[0.2458755224943161,
		0.1306920200586319,
		-0.07717425376176834],
		"max":[0.2476358860731125,
		0.13218428194522859,
		0.0028257498051971199]
	},
	{
		"bufferView":1,
		"type":"VEC3",
		"componentType":5126,
		"count":108,
		"byteOffset":12,
		"min":[-0.9999889135360718,
		-0.9184501767158508,
		-1.0],
		"max":[0.44166743755340578,
		0.9486832618713379,
		1.0]
	},
	{
		"bufferView":1,
		"type":"VEC2",
		"componentType":5126,
		"count":108,
		"byteOffset":24,
		"min":[0.0,
		0.0],
		"max":[1.0,
		1.0]
	},
	{
		"bufferView":2,
		"type":"SCALAR",
		"componentType":5123,
		"count":36,
		"byteOffset":0,
		"min":[0],
		"max":[35]
	},
	{
		"bufferView":3,
		"type":"VEC3",
		"componentType":5126,
		"count":36,
		"byteOffset":0,
		"min":[0.24635882675647736,
		0.13146108388900758,
		-0.07735063880681992],
		"max":[0.24642938375473023,
		0.13151752948760987,
		0.0026493610348552467]
	},
	{
		"bufferView":3,
		"type":"VEC3",
		"componentType":5126,
		"count":36,
		"byteOffset":12,
		"min":[-1.0,
		-0.9330569505691528,
		-1.0],
		"max":[0.383760929107666,
		0.9284810423851013,
		1.0]
	},
	{
		"bufferView":3,
		"type":"VEC2",
		"componentType":5126,
		"count":36,
		"byteOffset":24,
		"min":[0.0,
		0.0],
		"max":[1.0,
		1.0]
	},
	{
		"bufferView":4,
		"type":"SCALAR",
		"componentType":5123,
		"count":2556,
		"byteOffset":0,
		"min":[0],
		"max":[2555]
	},
	{
		"bufferView":5,
		"type":"VEC3",
		"componentType":5126,
		"count":2556,
		"byteOffset":0,
		"min":[0.22772157192230225,
		0.1048722192645073,
		-0.07752703130245209],
		"max":[0.2556721568107605,
		0.15810991823673249,
		0.0024729720316827299]
	},
	{
		"bufferView":5,
		"type":"VEC3",
		"componentType":5126,
		"count":2556,
		"byteOffset":12,
		"min":[-1.0,
		-1.0,
		-1.0],
		"max":[1.0,
		1.0,
		1.0]
	},
	{
		"bufferView":5,
		"type":"VEC2",
		"componentType":5126,
		"count":2556,
		"byteOffset":24,
		"min":[0.0,
		0.0],
		"max":[1.0,
		1.0]
	},
	{
		"bufferView":6,
		"type":"SCALAR",
		"componentType":5123,
		"count":108,
		"byteOffset":0,
		"min":[0],
		"max":[107]
	},
	{
		"bufferView":7,
		"type":"VEC3",
		"componentType":5126,
		"count":108,
		"byteOffset":0,
		"min":[0.2458755224943161,
		0.1306920200586319,
		-0.07770341634750366],
		"max":[0.2476358860731125,
		0.13218428194522859,
		0.0022965832613408567]
	},
	{
		"bufferView":7,
		"type":"VEC3",
		"componentType":5126,
		"count":108,
		"byteOffset":12,
		"min":[-0.9999889135360718,
		-0.9184501767158508,
		-1.0],
		"max":[0.44166743755340578,
		0.9486832618713379,
		1.0]
	},
	{
		"bufferView":7,
		"type":"VEC2",
		"componentType":5126,
		"count":108,
		"byteOffset":24,
		"min":[0.0,
		0.0],
		"max":[1.0,
		1.0]
	},
	{
		"bufferView":8,
		"type":"SCALAR",
		"componentType":5123,
		"count":204,
		"byteOffset":0,
		"min":[0],
		"max":[203]
	},
	{
		"bufferView":9,
		"type":"VEC3",
		"componentType":5126,
		"count":204,
		"byteOffset":0,
		"min":[0.2458755224943161,
		0.1306920200586319,
		-0.07787980884313584],
		"max":[0.24705380201339723,
		0.13218428194522859,
		0.0021201942581683399]
	},
	{
		"bufferView":9,
		"type":"VEC3",
		"componentType":5126,
		"count":204,
		"byteOffset":12,
		"min":[-0.9999889135360718,
		-0.9184501767158508,
		-1.0],
		"max":[1.0,
		0.992522120475769,
		1.0]
	},
	{
		"bufferView":9,
		"type":"VEC2",
		"componentType":5126,
		"count":204,
		"byteOffset":24,
		"min":[0.0,
		0.0],
		"max":[1.0,
		1.0]
	},
	{
		"bufferView":10,
		"type":"SCALAR",
		"componentType":5123,
		"count":108,
		"byteOffset":0,
		"min":[0],
		"max":[107]
	},
	{
		"bufferView":11,
		"type":"VEC3",
		"componentType":5126,
		"count":108,
		"byteOffset":0,
		"min":[0.2458755224943161,
		0.1306920200586319,
		-0.07805619388818741],
		"max":[0.2476358860731125,
		0.13218428194522859,
		0.0019438054878264666]
	},
	{
		"bufferView":11,
		"type":"VEC3",
		"componentType":5126,
		"count":108,
		"byteOffset":12,
		"min":[-0.9999889135360718,
		-0.9184501767158508,
		-1.0],
		"max":[0.44166743755340578,
		0.9486832618713379,
		1.0]
	},
	{
		"bufferView":11,
		"type":"VEC2",
		"componentType":5126,
		"count":108,
		"byteOffset":24,
		"min":[0.0,
		0.0],
		"max":[1.0,
		1.0]
	},
	{
		"bufferView":12,
		"type":"SCALAR",
		"componentType":5123,
		"count":36,
		"byteOffset":0,
		"min":[0],
		"max":[35]
	},
	{
		"bufferView":13,
		"type":"VEC3",
		"componentType":5126,
		"count":36,
		"byteOffset":0,
		"min":[0.24635882675647736,
		0.13146108388900758,
		-0.07823258638381958],
		"max":[0.24642938375473023,
		0.13151752948760987,
		0.0017674166010692716]
	},
	{
		"bufferView":13,
		"type":"VEC3",
		"componentType":5126,
		"count":36,
		"byteOffset":12,
		"min":[-1.0,
		-0.9330569505691528,
		-1.0],
		"max":[0.383760929107666,
		0.9284810423851013,
		1.0]
	},
	{
		"bufferView":13,
		"type":"VEC2",
		"componentType":5126,
		"count":36,
		"byteOffset":24,
		"min":[0.0,
		0.0],
		"max":[1.0,
		1.0]
	},
	{
		"bufferView":14,
		"type":"SCALAR",
		"componentType":5123,
		"count":504,
		"byteOffset":0,
		"min":[0],
		"max":[503]
	},
	{
		"bufferView":15,
		"type":"VEC3",
		"componentType":5126,
		"count":504,
		"byteOffset":0,
		"min":[0.17500247061252595,
		0.052371833473443988,
		-0.07840897142887116],
		"max":[0.2274816930294037,
		0.15763366222381593,
		0.0015910277143120766]
	},
	{
		"bufferView":15,
		"type":"VEC3",
		"componentType":5126,
		"count":504,
		"byteOffset":12,
		"min":[-1.0,
		-1.0,
		-1.0],
		"max":[1.0,
		1.0,
		1.0]
	},
	{
		"bufferView":15,
		"type":"VEC2",
		"componentType":5126,
		"count":504,
		"byteOffset":24,
		"min":[0.0,
		0.0],
		"max":[1.0,
		1.0]
	},
	{
		"bufferView":16,
		"type":"SCALAR",
		"componentType":5123,
		"count":36,
		"byteOffset":0,
		"min":[0],
		"max":[35]
	},
	{
		"bufferView":17,
		"type":"VEC3",
		"componentType":5126,
		"count":36,
		"byteOffset":0,
		"min":[0.20995569229125977,
		0.05236844718456268,
		-0.07858536392450333],
		"max":[0.2274816930294037,
		0.0698944479227066,
		0.0014146388275548816]
	},
	{
		"bufferView":17,
		"type":"VEC3",
		"componentType":5126,
		"count":36,
		"byteOffset":12,
		"min":[-1.0,
		-1.0,
		-1.0],
		"max":[1.0,
		1.0,
		1.0]
	},
	{
		"bufferView":17,
		"type":"VEC2",
		"componentType":5126,
		"count":36,
		"byteOffset":24,
		"min":[0.0,
		0.0],
		"max":[1.0,
		1.0]
	},
	{
		"bufferView":18,
		"type":"SCALAR",
		"componentType":5123,
		"count":36,
		"byteOffset":0,
		"min":[0],
		"max":[35]
	},
	{
		"bufferView":19,
		"type":"VEC3",
		"componentType":5126,
		"count":36,
		"byteOffset":0,
		"min":[0.2099415808916092,
		0.0874345600605011,
		-0.0787617489695549],
		"max":[0.2274675816297531,
		0.10496055334806442,
		0.0012382499407976866]
	},
	{
		"bufferView":19,
		"type":"VEC3",
		"componentType":5126,
		"count":36,
		"byteOffset":12,
		"min":[-1.0,
		-1.0,
		-1.0],
		"max":[1.0,
		1.0,
		1.0]
	},
	{
		"bufferView":19,
		"type":"VEC2",
		"componentType":5126,
		"count":36,
		"byteOffset":24,
		"min":[0.0,
		0.0],
		"max":[1.0,
		1.0]
	},
	{
		"bufferView":20,
		"type":"SCALAR",
		"componentType":5123,
		"count":1632,
		"byteOffset":0,
		"min":[0],
		"max":[1631]
	},
	{
		"bufferView":21,
		"type":"VEC3",
		"componentType":5126,
		"count":1632,
		"byteOffset":0,
		"min":[0.11742560565471649,
		0.05353952944278717,
		-0.07893814146518707],
		"max":[0.16966140270233155,
		0.11001219600439072,
		0.0010618610540404916]
	},
	{
		"bufferView":21,
		"type":"VEC3",
		"componentType":5126,
		"count":1632,
		"byteOffset":12,
		"min":[-1.0,
		-1.0,
		-1.0],
		"max":[0.9998690485954285,
		1.0,
		1.0]
	},
	{
		"bufferView":21,
		"type":"VEC2",
		"componentType":5126,
		"count":1632,
		"byteOffset":24,
		"min":[0.0,
		0.0],
		"max":[1.0,
		1.0]
	},
	{
		"bufferView":22,
		"type":"SCALAR",
		"componentType":5123,
		"count":36,
		"byteOffset":0,
		"min":[0],
		"max":[35]
	},
	{
		"bufferView":23,
		"type":"VEC3",
		"componentType":5126,
		"count":36,
		"byteOffset":0,
		"min":[0.0418059304356575,
		0.05245734751224518,
		-0.07911452651023865],
		"max":[0.05935274064540863,
		0.1576327532529831,
		0.0008854721672832966]
	},
	{
		"bufferView":23,
		"type":"VEC3",
		"componentType":5126,
		"count":36,
		"byteOffset":12,
		"min":[-1.0,
		-1.0,
		-1.0],
		"max":[1.0,
		1.0,
		1.0]
	},
	{
		"bufferView":23,
		"type":"VEC2",
		"componentType":5126,
		"count":36,
		"byteOffset":24,
		"min":[0.0,
		0.0],
		"max":[1.0,
		1.0]
	},
	{
		"bufferView":24,
		"type":"SCALAR",
		"componentType":5123,
		"count":1632,
		"byteOffset":0,
		"min":[0],
		"max":[1631]
	},
	{
		"bufferView":25,
		"type":"VEC3",
		"componentType":5126,
		"count":1632,
		"byteOffset":0,
		"min":[0.0594642199575901,
		0.052699919790029529,
		-0.07929091900587082],
		"max":[0.11170002073049545,
		0.10916905105113983,
		0.0007090832805261016]
	},
	{
		"bufferView":25,
		"type":"VEC3",
		"componentType":5126,
		"count":1632,
		"byteOffset":12,
		"min":[-1.0,
		-1.0,
		-1.0],
		"max":[0.9998690485954285,
		1.0,
		1.0]
	},
	{
		"bufferView":25,
		"type":"VEC2",
		"componentType":5126,
		"count":1632,
		"byteOffset":24,
		"min":[0.0,
		0.0],
		"max":[1.0,
		1.0]
	},
	{
		"bufferView":26,
		"type":"SCALAR",
		"componentType":5123,
		"count":600,
		"byteOffset":0,
		"min":[0],
		"max":[599]
	},
	{
		"bufferView":27,
		"type":"VEC3",
		"componentType":5126,
		"count":600,
		"byteOffset":0,
		"min":[0.17500247061252595,
		0.05236830562353134,
		-0.0794673040509224],
		"max":[0.2275010049343109,
		0.15763366222381593,
		0.0005326944519765675]
	},
	{
		"bufferView":27,
		"type":"VEC3",
		"componentType":5126,
		"count":600,
		"byteOffset":12,
		"min":[-1.0,
		-1.0,
		-1.0],
		"max":[1.0,
		1.0,
		1.0]
	},
	{
		"bufferView":27,
		"type":"VEC2",
		"componentType":5126,
		"count":600,
		"byteOffset":24,
		"min":[0.0,
		0.0],
		"max":[1.0,
		1.0]
	},
	{
		"bufferView":28,
		"type":"SCALAR",
		"componentType":5123,
		"count":1632,
		"byteOffset":0,
		"min":[0],
		"max":[1631]
	},
	{
		"bufferView":29,
		"type":"VEC3",
		"componentType":5126,
		"count":1632,
		"byteOffset":0,
		"min":[0.11742560565471649,
		0.05353952944278717,
		-0.07964369654655457],
		"max":[0.16966140270233155,
		0.11001219600439072,
		0.00035630553611554205]
	},
	{
		"bufferView":29,
		"type":"VEC3",
		"componentType":5126,
		"count":1632,
		"byteOffset":12,
		"min":[-1.0,
		-1.0,
		-1.0],
		"max":[0.9998690485954285,
		1.0,
		1.0]
	},
	{
		"bufferView":29,
		"type":"VEC2",
		"componentType":5126,
		"count":1632,
		"byteOffset":24,
		"min":[0.0,
		0.0],
		"max":[1.0,
		1.0]
	},
	{
		"bufferView":30,
		"type":"SCALAR",
		"componentType":5123,
		"count":36,
		"byteOffset":0,
		"min":[0],
		"max":[35]
	},
	{
		"bufferView":31,
		"type":"VEC3",
		"componentType":5126,
		"count":36,
		"byteOffset":0,
		"min":[0.0418059304356575,
		0.05245734751224518,
		-0.07982008159160614],
		"max":[0.05935274064540863,
		0.1576327532529831,
		0.0001799166639102623]
	},
	{
		"bufferView":31,
		"type":"VEC3",
		"componentType":5126,
		"count":36,
		"byteOffset":12,
		"min":[-1.0,
		-1.0,
		-1.0],
		"max":[1.0,
		1.0,
		1.0]
	},
	{
		"bufferView":31,
		"type":"VEC2",
		"componentType":5126,
		"count":36,
		"byteOffset":24,
		"min":[0.0,
		0.0],
		"max":[1.0,
		1.0]
	},
	{
		"bufferView":32,
		"type":"SCALAR",
		"componentType":5123,
		"count":1632,
		"byteOffset":0,
		"min":[0],
		"max":[1631]
	},
	{
		"bufferView":33,
		"type":"VEC3",
		"componentType":5126,
		"count":1632,
		"byteOffset":0,
		"min":[0.0594642199575901,
		0.052699919790029529,
		-0.07999647408723831],
		"max":[0.11170002073049545,
		0.10916905105113983,
		0.0000035277773804409664]
	},
	{
		"bufferView":33,
		"type":"VEC3",
		"componentType":5126,
		"count":1632,
		"byteOffset":12,
		"min":[-1.0,
		-1.0,
		-1.0],
		"max":[0.9998690485954285,
		1.0,
		1.0]
	},
	{
		"bufferView":33,
		"type":"VEC2",
		"componentType":5126,
		"count":1632,
		"byteOffset":24,
		"min":[0.0,
		0.0],
		"max":[1.0,
		1.0]
	}],
	"bufferViews":[{
		"buffer":0,
		"byteOffset":0,
		"byteLength":216,
		"target":34963
	},
	{
		"buffer":0,
		"byteOffset":216,
		"byteLength":3456,
		"target":34962,
		"byteStride":32
	},
	{
		"buffer":1,
		"byteOffset":0,
		"byteLength":72,
		"target":34963
	},
	{
		"buffer":1,
		"byteOffset":72,
		"byteLength":1152,
		"target":34962,
		"byteStride":32
	},
	{
		"buffer":2,
		"byteOffset":0,
		"byteLength":5112,
		"target":34963
	},
	{
		"buffer":2,
		"byteOffset":5112,
		"byteLength":81792,
		"target":34962,
		"byteStride":32
	},
	{
		"buffer":3,
		"byteOffset":0,
		"byteLength":216,
		"target":34963
	},
	{
		"buffer":3,
		"byteOffset":216,
		"byteLength":3456,
		"target":34962,
		"byteStride":32
	},
	{
		"buffer":4,
		"byteOffset":0,
		"byteLength":408,
		"target":34963
	},
	{
		"buffer":4,
		"byteOffset":408,
		"byteLength":6528,
		"target":34962,
		"byteStride":32
	},
	{
		"buffer":5,
		"byteOffset":0,
		"byteLength":216,
		"target":34963
	},
	{
		"buffer":5,
		"byteOffset":216,
		"byteLength":3456,
		"target":34962,
		"byteStride":32
	},
	{
		"buffer":6,
		"byteOffset":0,
		"byteLength":72,
		"target":34963
	},
	{
		"buffer":6,
		"byteOffset":72,
		"byteLength":1152,
		"target":34962,
		"byteStride":32
	},
	{
		"buffer":7,
		"byteOffset":0,
		"byteLength":1008,
		"target":34963
	},
	{
		"buffer":7,
		"byteOffset":1008,
		"byteLength":16128,
		"target":34962,
		"byteStride":32
	},
	{
		"buffer":8,
		"byteOffset":0,
		"byteLength":72,
		"target":34963
	},
	{
		"buffer":8,
		"byteOffset":72,
		"byteLength":1152,
		"target":34962,
		"byteStride":32
	},
	{
		"buffer":9,
		"byteOffset":0,
		"byteLength":72,
		"target":34963
	},
	{
		"buffer":9,
		"byteOffset":72,
		"byteLength":1152,
		"target":34962,
		"byteStride":32
	},
	{
		"buffer":10,
		"byteOffset":0,
		"byteLength":3264,
		"target":34963
	},
	{
		"buffer":10,
		"byteOffset":3264,
		"byteLength":52224,
		"target":34962,
		"byteStride":32
	},
	{
		"buffer":11,
		"byteOffset":0,
		"byteLength":72,
		"target":34963
	},
	{
		"buffer":11,
		"byteOffset":72,
		"byteLength":1152,
		"target":34962,
		"byteStride":32
	},
	{
		"buffer":12,
		"byteOffset":0,
		"byteLength":3264,
		"target":34963
	},
	{
		"buffer":12,
		"byteOffset":3264,
		"byteLength":52224,
		"target":34962,
		"byteStride":32
	},
	{
		"buffer":13,
		"byteOffset":0,
		"byteLength":1200,
		"target":34963
	},
	{
		"buffer":13,
		"byteOffset":1200,
		"byteLength":19200,
		"target":34962,
		"byteStride":32
	},
	{
		"buffer":14,
		"byteOffset":0,
		"byteLength":3264,
		"target":34963
	},
	{
		"buffer":14,
		"byteOffset":3264,
		"byteLength":52224,
		"target":34962,
		"byteStride":32
	},
	{
		"buffer":15,
		"byteOffset":0,
		"byteLength":72,
		"target":34963
	},
	{
		"buffer":15,
		"byteOffset":72,
		"byteLength":1152,
		"target":34962,
		"byteStride":32
	},
	{
		"buffer":16,
		"byteOffset":0,
		"byteLength":3264,
		"target":34963
	},
	{
		"buffer":16,
		"byteOffset":3264,
		"byteLength":52224,
		"target":34962,
		"byteStride":32
	}],
	"buffers":[{
		"uri":"data:application/octet-stream;base64,",
		"byteLength":3672
	},
	{
		"uri":"data:application/octet-stream;base64,",
		"byteLength":1224
	},
	{
		"uri":"data:application/octet-stream;base64,",
		"byteLength":86904
	},
	{
		"uri":"data:application/octet-stream;base64,",
		"byteLength":3672
	},
	{
		"uri":"data:application/octet-stream;base64,",
		"byteLength":6936
	},
	{
		"uri":"data:application/octet-stream;base64,",
		"byteLength":3672
	},
	{
		"uri":"data:application/octet-stream;base64,",
		"byteLength":1224
	},
	{
		"uri":"data:application/octet-stream;base64,",
		"byteLength":17136
	},
	{
		"uri":"data:application/octet-stream;base64,",
		"byteLength":1224
	},
	{
		"uri":"data:application/octet-stream;base64,",
		"byteLength":1224
	},
	{
		"uri":"data:application/octet-stream;base64,",
		"byteLength":55488
	},
	{
		"uri":"data:application/octet-stream;base64,",
		"byteLength":1224
	},
	{
		"uri":"data:application/octet-stream;base64,",
		"byteLength":55488
	},
	{
		"uri":"data:application/octet-stream;base64,",
		"byteLength":20400
	},
	{
		"uri":"data:application/octet-stream;base64,",
		"byteLength":55488
	},
	{
		"uri":"data:application/octet-stream;base64,",
		"byteLength":1224
	},
	{
		"uri":"data:application/octet-stream;base64,",
		"byteLength":55488
	}],
	"materials":[{
		"pbrMetallicRoughness":{
			"baseColorFactor":[0.0,
			0.0,
			0.0,
			1.0],
			"metallicFactor":0.0,
			"roughnessFactor":0.5
		},
		"emissiveFactor":[0.0,
		0.0,
		0.0],
		"alphaMode":"OPAQUE",
		"doubleSided":true,
		"name":"Mat.1"
	}]
}