{
	"asset":{
		"version":"2.0",
		"generator":""
	},
	"scenes":[{
		"nodes":[0]
	}],
	"meshes":[{
		"name":"Fill",
		"primitives":[{
			"attributes":{
				"POSITION":1,
				"NORMAL":2,
				"TEXCOORD_0":3
			},
			"indices":0
		}]
	},
	{
		"name":"Fill",
		"primitives":[{
			"attributes":{
				"POSITION":5,
				"NORMAL":6,
				"TEXCOORD_0":7
			},
			"indices":4
		}]
	},
	{
		"name":"Fill",
		"primitives":[{
			"attributes":{
				"POSITION":9,
				"NORMAL":10,
				"TEXCOORD_0":11
			},
			"indices":8
		}]
	},
	{
		"name":"Fill",
		"primitives":[{
			"attributes":{
				"POSITION":13,
				"NORMAL":14,
				"TEXCOORD_0":15
			},
			"indices":12
		}]
	}],
	"nodes":[{
		"name":"bokno3.ai",
		"translation":[-0.003776074852794409,
		0.023150000721216203,
		0.0],
		"rotation":[0.0,
		0.0,
		0.0,
		-1.0],
		"scale":[1.0,
		1.0,
		1.0],
		"children":[1]
	},
	{
		"name":"Null",
		"translation":[-0.04662804678082466,
		-0.05000081658363342,
		0.0],
		"rotation":[0.0,
		0.0,
		0.0,
		-1.0],
		"scale":[1.0,
		1.0,
		1.0],
		"children":[2]
	},
	{
		"name":"Layer 1",
		"translation":[0.04030414670705795,
		0.04330800473690033,
		0.0],
		"rotation":[0.0,
		0.0,
		0.0,
		-1.0],
		"scale":[1.0,
		1.0,
		1.0],
		"children":[3,
		4,
		5,
		6]
	},
	{
		"name":"Fill",
		"translation":[-0.04030414670705795,
		-0.04330800473690033,
		0.0],
		"mesh":0,
		"rotation":[0.0,
		0.0,
		0.0,
		-1.0],
		"scale":[1.0,
		1.0,
		1.0]
	},
	{
		"name":"Fill",
		"translation":[-0.04030414670705795,
		-0.04330800473690033,
		0.0],
		"mesh":1,
		"rotation":[0.0,
		0.0,
		0.0,
		-1.0],
		"scale":[1.0,
		1.0,
		1.0]
	},
	{
		"name":"Fill",
		"translation":[-0.04030414670705795,
		-0.04330800473690033,
		0.0],
		"mesh":2,
		"rotation":[0.0,
		0.0,
		0.0,
		-1.0],
		"scale":[1.0,
		1.0,
		1.0]
	},
	{
		"name":"Fill",
		"translation":[-0.04030414670705795,
		-0.04330800473690033,
		0.0],
		"mesh":3,
		"rotation":[0.0,
		0.0,
		0.0,
		-1.0],
		"scale":[1.0,
		1.0,
		1.0]
	}],
	"accessors":[{
		"bufferView":0,
		"type":"SCALAR",
		"componentType":5123,
		"count":552,
		"byteOffset":0,
		"min":[0],
		"max":[551]
	},
	{
		"bufferView":1,
		"type":"VEC3",
		"componentType":5126,
		"count":552,
		"byteOffset":0,
		"min":[0.06435371935367584,
		0.026886817067861558,
		-0.012467305175960064],
		"max":[0.08739716559648514,
		0.07311481237411499,
		0.0005326944519765675]
	},
	{
		"bufferView":1,
		"type":"VEC3",
		"componentType":5126,
		"count":552,
		"byteOffset":12,
		"min":[-1.0,
		-1.0,
		-1.0],
		"max":[1.0,
		1.0,
		1.0]
	},
	{
		"bufferView":1,
		"type":"VEC2",
		"componentType":5126,
		"count":552,
		"byteOffset":24,
		"min":[0.0,
		0.0],
		"max":[1.0,
		1.0]
	},
	{
		"bufferView":2,
		"type":"SCALAR",
		"componentType":5123,
		"count":1632,
		"byteOffset":0,
		"min":[0],
		"max":[1631]
	},
	{
		"bufferView":3,
		"type":"VEC3",
		"componentType":5126,
		"count":1632,
		"byteOffset":0,
		"min":[0.039066608995199206,
		0.027401871979236604,
		-0.012643694877624512],
		"max":[0.06200774759054184,
		0.05220215022563934,
		0.00035630553611554205]
	},
	{
		"bufferView":3,
		"type":"VEC3",
		"componentType":5126,
		"count":1632,
		"byteOffset":12,
		"min":[-1.0,
		-1.0,
		-1.0],
		"max":[0.9998690485954285,
		1.0,
		1.0]
	},
	{
		"bufferView":3,
		"type":"VEC2",
		"componentType":5126,
		"count":1632,
		"byteOffset":24,
		"min":[0.0,
		0.0],
		"max":[1.0,
		1.0]
	},
	{
		"bufferView":4,
		"type":"SCALAR",
		"componentType":5123,
		"count":36,
		"byteOffset":0,
		"min":[0],
		"max":[35]
	},
	{
		"bufferView":5,
		"type":"VEC3",
		"componentType":5126,
		"count":36,
		"byteOffset":0,
		"min":[0.005858933087438345,
		0.026926115155220033,
		-0.012820083647966385],
		"max":[0.013564657419919968,
		0.07311354577541352,
		0.0001799166639102623]
	},
	{
		"bufferView":5,
		"type":"VEC3",
		"componentType":5126,
		"count":36,
		"byteOffset":12,
		"min":[-1.0,
		-1.0,
		-1.0],
		"max":[1.0,
		1.0,
		1.0]
	},
	{
		"bufferView":5,
		"type":"VEC2",
		"componentType":5126,
		"count":36,
		"byteOffset":24,
		"min":[0.0,
		0.0],
		"max":[1.0,
		1.0]
	},
	{
		"bufferView":6,
		"type":"SCALAR",
		"componentType":5123,
		"count":1632,
		"byteOffset":0,
		"min":[0],
		"max":[1631]
	},
	{
		"bufferView":7,
		"type":"VEC3",
		"componentType":5126,
		"count":1632,
		"byteOffset":0,
		"min":[0.013613694347441197,
		0.02703145518898964,
		-0.012996472418308258],
		"max":[0.03655483201146126,
		0.05183173343539238,
		0.0000035277773804409664]
	},
	{
		"bufferView":7,
		"type":"VEC3",
		"componentType":5126,
		"count":1632,
		"byteOffset":12,
		"min":[-1.0,
		-1.0,
		-1.0],
		"max":[0.9998690485954285,
		1.0,
		1.0]
	},
	{
		"bufferView":7,
		"type":"VEC2",
		"componentType":5126,
		"count":1632,
		"byteOffset":24,
		"min":[0.0,
		0.0],
		"max":[1.0,
		1.0]
	}],
	"bufferViews":[{
		"buffer":0,
		"byteOffset":0,
		"byteLength":1104,
		"target":34963
	},
	{
		"buffer":0,
		"byteOffset":1104,
		"byteLength":17664,
		"target":34962,
		"byteStride":32
	},
	{
		"buffer":1,
		"byteOffset":0,
		"byteLength":3264,
		"target":34963
	},
	{
		"buffer":1,
		"byteOffset":3264,
		"byteLength":52224,
		"target":34962,
		"byteStride":32
	},
	{
		"buffer":2,
		"byteOffset":0,
		"byteLength":72,
		"target":34963
	},
	{
		"buffer":2,
		"byteOffset":72,
		"byteLength":1152,
		"target":34962,
		"byteStride":32
	},
	{
		"buffer":3,
		"byteOffset":0,
		"byteLength":3264,
		"target":34963
	},
	{
		"buffer":3,
		"byteOffset":3264,
		"byteLength":52224,
		"target":34962,
		"byteStride":32
	}],
	"buffers":[{
		"uri":"data:application/octet-stream;base64,",
		"byteLength":18768
	},
	{
		"uri":"data:application/octet-stream;base64,",
		"byteLength":55488
	},
	{
		"uri":"data:application/octet-stream;base64,",
		"byteLength":1224
	},
	{
		"uri":"data:application/octet-stream;base64,",
		"byteLength":55488
	}]
}