<?xml version="1.0" encoding="UTF-8"?>
<svg id="_레이어_2" data-name="레이어 2" xmlns="http://www.w3.org/2000/svg" viewBox="0 0 282.37 259.78">
  <path d="M77.57,81.59c-2.63-3.07-11.68-5.79-15.11-9.29l-25.32,7.82c-4.23,1.31-8.04-.84-9.7-3.5-1.83-2.94-1.03-7.82,1.85-10.12,22.62-18.01,56.88-5.65,66.1,13.14,1.9,3.86,7.59,7.36,10.81,10.44,4.43,4.25,3.96,10.03-.35,13.78-8,6.97-19.19-7.94-28.29-22.28Z"/>
  <g>
    <path d="M79.73,187.2c-19.39,8.41-50.5,12.51-52.75.52-.65-3.48,2.63-9.84,7.38-9.6l20.56,1.02c14.8.74,25.73-10.44,36.04-19.51,13.32-11.73,20.38-25.54,28.39-41.33,4.82-9.51,11.78-18.49,17.42-27.7l16.61-17.16c9.46-9.77,22.29-15.78,35.35-19.77l30.4-1.72c9.19-.52,15.81-4.2,27.04-3.24l-21.05-12c-2.48-1.41-6.38-1.6-9.19-2.43-5.62-1.67-8.64-6.68-6.42-11.95,1.71-4.05,8.56-7.35,13.15-3.13s10.24,4.18,15.32,6.53c5.6,2.59,9.95,6.25,16.21,7.73l4.56,7.13c2.31,3.61,7.18,4.51,8.18,7.34,1.91,5.4-.27,9.08-3.37,13.06-9.33,11.94-19.68,47.63-29.75,30.99-3.67-6.06,8.76-20.95,17.27-32.52-8.12-2.5-14.17,2.73-20.44,3.89-11.42,2.12-22.92.89-34.93,3.76-18.75,4.48-35.38,16.09-46.05,32.59l-35.69,55.18c-8.63,13.34-17.88,25.22-34.24,32.31Z"/>
    <path d="M245.18,166.84c10.72,15.56,18.44,16.26,19.86,24.83.9,5.42-14.64,17.53-24.02,27.16-5.05,5.18-7.68,12.18-16.16,16.15-2.51,1.18-5.97-2.33-6.87-4.68-3.95-10.19,15.52-17.53,27.22-32.93-6.49-.65-11.95,1.84-17.98,1.39l-40.86-3.03c-14.98-1.11-32.14-18.26-43.06-31.77-3.13-3.87-2.43-7.52-.87-9.69,2.99-4.17,9.08-5.67,12.29-1.67l15.05,18.77c6.21,7.75,20.48,12.66,30.42,12.18,7.26-.35,12.11-2.13,19.42,1.38l11.37-3.51c4.27,3.35,8.25,6.92,14.35,4.89l-21.06-18.07c-3.71-3.18-4.35-7.43-2.47-11.32,1.75-3.62,8.01-6.11,11.86-2.09,3.69,3.85,8.5,7.62,11.52,11.99Z"/>
  </g>
</svg>